<svg xmlns="http://www.w3.org/2000/svg" viewBox="0 0 800 500">
  <defs>
    <linearGradient id="bg" x1="0" y1="0" x2="1" y2="1">
      <stop offset="0%" stop-color="#2d6a4f" />
      <stop offset="100%" stop-color="#95d5b2" />
    </linearGradient>
  </defs>
  <rect width="800" height="500" rx="40" fill="url(#bg)" />
  <circle cx="180" cy="170" r="80" fill="#fff" opacity="0.2" />
  <path fill="#fff" d="M300 250c-40 0-60 32-60 56v54h120v-54c0-24-20-56-60-56z" opacity="0.15"/>
  <path fill="#fff" d="M240 220c0-30 22-52 50-52h20c28 0 50 22 50 52v20H240v-20z" opacity="0.18"/>
  <path fill="#fff" d="M180 320c-68 0-124 34-124 76v24h248v-24c0-42-56-76-124-76z" opacity="0.2"/>
  <circle cx="220" cy="190" r="18" fill="#fff" opacity="0.85" />
  <circle cx="260" cy="170" r="12" fill="#fff" opacity="0.8" />
  <path d="M320 310c80 0 120-18 146-54 18-24 34-58 26-82-8-24-38-32-60-32-32 0-54 28-60 56l-96 98z" fill="#fff" opacity="0.55"/>
  <path d="M420 320c0 24-20 44-44 44s-44-20-44-44 20-44 44-44 44 20 44 44z" fill="#fff" opacity="0.8"/>
</svg>
